<?xml version="1.0" encoding="utf-8"?>
<!-- Generator: Adobe Illustrator 24.1.1, SVG Export Plug-In . SVG Version: 6.00 Build 0)  -->
<svg version="1.1" id="Layer_1" xmlns="http://www.w3.org/2000/svg" xmlns:xlink="http://www.w3.org/1999/xlink" x="0px" y="0px"
	 viewBox="0 0 512 512" style="enable-background:new 0 0 512 512;" xml:space="preserve">
<style type="text/css">
	.st0{fill-rule:evenodd;clip-rule:evenodd;}
</style>
<g>
	<path  fill="white" class="st0" d="M64,32h384c17.7,0,32,14.3,32,32v384c0,17.7-14.3,32-32,32H64c-17.7,0-32-14.3-32-32V64C32,46.3,46.3,32,64,32
		z M448,0c35.4,0,64,28.6,64,64v384c0,35.4-28.6,64-64,64H64c-35.4,0-64-28.6-64-64V64C0,28.6,28.6,0,64,0H448z"/>
	<path fill="white" class="st0" d="M160,480V32h-32v448H160z M416,112c0-8.8-7.2-16-16-16H240c-8.8,0-16,7.2-16,16s7.2,16,16,16h160
		C408.8,128,416,120.8,416,112z M416,208c0-8.8-7.2-16-16-16H240c-8.8,0-16,7.2-16,16s7.2,16,16,16h160C408.8,224,416,216.8,416,208
		z M416,304c0-8.8-7.2-16-16-16H240c-8.8,0-16,7.2-16,16s7.2,16,16,16h160C408.8,320,416,312.8,416,304z M416,400
		c0-8.8-7.2-16-16-16H240c-8.8,0-16,7.2-16,16s7.2,16,16,16h160C408.8,416,416,408.8,416,400z"/>
</g>
</svg>
