<?xml version="1.0" encoding="utf-8"?>
<!-- Generator: Adobe Illustrator 24.1.1, SVG Export Plug-In . SVG Version: 6.00 Build 0)  -->
<svg version="1.1" id="Layer_1" xmlns="http://www.w3.org/2000/svg" xmlns:xlink="http://www.w3.org/1999/xlink" x="0px" y="0px"
	 viewBox="0 0 512 512" style="enable-background:new 0 0 512 512;" xml:space="preserve">
<style type="text/css">
	.st0{fill-rule:evenodd;clip-rule:evenodd;}
</style>
<g>
	<path fill="white" class="st0" d="M448,32H64c-17.7,0-32,14.3-32,32v384c0,17.7,14.3,32,32,32h384c17.7,0,32-14.3,32-32V64
		C480,46.3,465.7,32,448,32z M64,0C28.6,0,0,28.6,0,64v384c0,35.4,28.6,64,64,64h384c35.4,0,64-28.6,64-64V64c0-35.4-28.6-64-64-64
		H64z"/>
	<path fill="white" class="st0" d="M352,480V32h32v448H352z M96,112c0-8.8,7.2-16,16-16h160c8.8,0,16,7.2,16,16s-7.2,16-16,16H112
		C103.2,128,96,120.8,96,112z M96,208c0-8.8,7.2-16,16-16h160c8.8,0,16,7.2,16,16s-7.2,16-16,16H112C103.2,224,96,216.8,96,208z
		 M96,304c0-8.8,7.2-16,16-16h160c8.8,0,16,7.2,16,16s-7.2,16-16,16H112C103.2,320,96,312.8,96,304z M96,400c0-8.8,7.2-16,16-16h160
		c8.8,0,16,7.2,16,16s-7.2,16-16,16H112C103.2,416,96,408.8,96,400z"/>
</g>
</svg>
